<svg xmlns="http://www.w3.org/2000/svg" viewBox="0 0 1200 640" role="img"><rect width="1200" height="640" fill="#f5f2e8"/><g fill="none" stroke="#3f7387" stroke-width="1.5" opacity="0.25"><path d="M-20,120 C220,80 420,150 640,116 C860,82 1020,140 1220,110"/><path d="M-20,200 C230,160 430,230 650,196 C870,162 1030,220 1220,190"/></g><path d="M70,300 L235,290 L300,282 L420,272 L560,262 L700,254 L830,250 L940,246 L1005,232 L1060,210 L1105,226 L1128,268 L1108,300 L1132,330 L1100,348 L1118,384 L1076,392 L1040,428 L980,436 L930,470 L850,480 L790,458 L700,462 L620,450 L520,452 L400,444 L300,438 L200,430 L95,420 L70,360 Z" fill="#1f4534" opacity="0.92"/><path d="M70,300 L235,290 L300,282 L420,272 L560,262 L700,254 L830,250 L940,246 L1005,232 L1060,210 L1105,226 L1128,268 L1108,300 L1132,330 L1100,348 L1118,384 L1076,392 L1040,428 L980,436 L930,470 L850,480 L790,458 L700,462 L620,450 L520,452 L400,444 L300,438 L200,430 L95,420 L70,360 Z" fill="none" stroke="#2f5d45" stroke-width="4" opacity="0.6"/><path d="M1060,210 L1105,226 L1128,268 L1108,300 L1132,330 L1100,348 L1118,384 L1076,392 L1040,428 L980,436 L930,470" fill="none" stroke="#3f7387" stroke-width="7" opacity="0.55" stroke-linecap="round"/><circle cx="560" cy="345" r="120" fill="#3d6f53" opacity="0.35"/><circle cx="985" cy="418" r="95" fill="#3f7387" opacity="0.3"/><circle cx="560" cy="345" r="34" fill="#c1943f" opacity="0.22"/><circle cx="560" cy="345" r="19" fill="#c1943f" opacity="0.45"/><circle cx="560" cy="345" r="9" fill="#c1943f"/><circle cx="560" cy="345" r="9" fill="none" stroke="#fff" stroke-width="2.5"/><text x="560" y="287" text-anchor="middle" font-family="Georgia,serif" font-size="30" font-weight="bold" fill="#f5f2e8" stroke="#152420" stroke-width="0.8">The Triangle</text><text x="560" y="313" text-anchor="middle" font-family="monospace" font-size="16" fill="#e8d9ae">APEX HQ · 919-387-7103</text><circle cx="985" cy="418" r="34" fill="#c1943f" opacity="0.22"/><circle cx="985" cy="418" r="19" fill="#c1943f" opacity="0.45"/><circle cx="985" cy="418" r="9" fill="#c1943f"/><circle cx="985" cy="418" r="9" fill="none" stroke="#fff" stroke-width="2.5"/><text x="925" y="352" text-anchor="middle" font-family="Georgia,serif" font-size="30" font-weight="bold" fill="#f5f2e8" stroke="#152420" stroke-width="0.8">Wilmington</text><text x="925" y="378" text-anchor="middle" font-family="monospace" font-size="16" fill="#e8d9ae">CASTLE HAYNE · 910-623-1262</text><text x="70" y="580" font-family="monospace" font-size="15" fill="#8f6b28" letter-spacing="2">SWEETWATER SERVICE REGIONS — NORTH CAROLINA</text></svg>